<svg width="24" height="22" viewBox="0 0 24 22" fill="none" xmlns="http://www.w3.org/2000/svg">
<g clip-path="url(#clip0_149_520)">
<path d="M4 7.20717C4 6.25142 4.42143 5.33482 5.17157 4.659C5.92172 3.98318 6.93913 3.60352 8 3.60352H16C17.0609 3.60352 18.0783 3.98318 18.8284 4.659C19.5786 5.33482 20 6.25142 20 7.20717V14.4145C20 15.3702 19.5786 16.2868 18.8284 16.9626C18.0783 17.6384 17.0609 18.0181 16 18.0181H8C6.93913 18.0181 5.92172 17.6384 5.17157 16.9626C4.42143 16.2868 4 15.3702 4 14.4145V7.20717Z" stroke="#FFBF00" stroke-width="2.25" stroke-linecap="round" stroke-linejoin="round"/>
<path d="M9 10.8111C9 11.5279 9.31607 12.2154 9.87868 12.7223C10.4413 13.2291 11.2044 13.5139 12 13.5139C12.7956 13.5139 13.5587 13.2291 14.1213 12.7223C14.6839 12.2154 15 11.5279 15 10.8111C15 10.0943 14.6839 9.40687 14.1213 8.90001C13.5587 8.39315 12.7956 8.1084 12 8.1084C11.2044 8.1084 10.4413 8.39315 9.87868 8.90001C9.31607 9.40687 9 10.0943 9 10.8111Z" stroke="#FFBF00" stroke-width="2.25" stroke-linecap="round" stroke-linejoin="round"/>
<path d="M16.5 6.75684V6.76684" stroke="#FFBF00" stroke-width="2.25" stroke-linecap="round" stroke-linejoin="round"/>
</g>
<defs>
<clipPath id="clip0_149_520">
<rect width="24" height="21.6219" fill="white"/>
</clipPath>
</defs>
</svg>
